<svg xmlns="http://www.w3.org/2000/svg" width="1200" height="560" viewBox="0 0 1200 560" fill="none">
  <rect width="1200" height="560" rx="28" fill="#0F172A"/>
  <text x="60" y="72" fill="#E2E8F0" font-family="Segoe UI, Arial, sans-serif" font-size="34" font-weight="700">Demo scenario: 7-seg display</text>
  <text x="60" y="110" fill="#94A3B8" font-family="Segoe UI, Arial, sans-serif" font-size="20">Good for showing a visible output, not just internal logic state.</text>

  <rect x="60" y="160" width="520" height="280" rx="22" fill="#111827" stroke="#334155" stroke-width="2"/>
  <text x="94" y="208" fill="#E2E8F0" font-family="Segoe UI, Arial, sans-serif" font-size="22" font-weight="700">Inputs</text>
  <rect x="94" y="236" width="120" height="42" rx="12" fill="#1D4ED8"/>
  <rect x="94" y="292" width="120" height="42" rx="12" fill="#1D4ED8"/>
  <rect x="94" y="348" width="120" height="42" rx="12" fill="#1D4ED8"/>
  <text x="238" y="264" fill="#CBD5E1" font-family="Segoe UI, Arial, sans-serif" font-size="18">TOGGLE A</text>
  <text x="238" y="320" fill="#CBD5E1" font-family="Segoe UI, Arial, sans-serif" font-size="18">TOGGLE B</text>
  <text x="238" y="376" fill="#CBD5E1" font-family="Segoe UI, Arial, sans-serif" font-size="18">TOGGLE C / D</text>

  <rect x="668" y="160" width="472" height="280" rx="22" fill="#111827" stroke="#C2410C" stroke-width="2"/>
  <text x="702" y="208" fill="#FDBA74" font-family="Segoe UI, Arial, sans-serif" font-size="22" font-weight="700">Output</text>
  <rect x="840" y="234" width="140" height="134" rx="18" fill="#0B1220" stroke="#F59E0B"/>
  <path d="M872 252H948" stroke="#F59E0B" stroke-width="10" stroke-linecap="round"/>
  <path d="M864 300V252" stroke="#F59E0B" stroke-width="10" stroke-linecap="round"/>
  <path d="M956 300V252" stroke="#F59E0B" stroke-width="10" stroke-linecap="round"/>
  <path d="M872 300H948" stroke="#F59E0B" stroke-width="10" stroke-linecap="round"/>
  <path d="M864 348V300" stroke="#F59E0B" stroke-width="10" stroke-linecap="round"/>
  <path d="M956 348V300" stroke="#F59E0B" stroke-width="10" stroke-linecap="round"/>
  <path d="M872 348H948" stroke="#F59E0B" stroke-width="10" stroke-linecap="round"/>

  <text x="60" y="492" fill="#94A3B8" font-family="Segoe UI, Arial, sans-serif" font-size="18">Recommended real shot: toggles on the left, 7-seg display on the right, visible change of the output digit.</text>
</svg>
